<svg width="112" height="113" fill="none" xmlns="http://www.w3.org/2000/svg"><path fill-rule="evenodd" clip-rule="evenodd" d="M65.946 1c-.81 0-1.562.174-2.256.405 1.475.983 2.285 2.285 2.69 3.76.029.203.087.347.116.55.029.173.058.347.058.52.115 2.546-.666 2.864-1.215 4.368-.839 1.938-.608 4.02.405 5.698.087.202.202.434.347.636-1.1-7.318 5.004-8.417 6.132-10.702.087-1.995-1.562-3.326-2.864-4.251C68.116 1.232 66.988 1 65.946 1Zm9.198 1.649c-.116.665-.029.491-.058.838-.029.232-.029.521-.058.753a6.267 6.267 0 0 1-.202.694c-.058.231-.145.462-.231.694-.116.231-.203.434-.319.665-.086.116-.144.232-.23.347l-.175.26c-.144.203-.289.405-.433.579-.174.174-.319.376-.521.52v.03c-.174.144-.347.318-.55.462-.607.463-1.301.81-1.937 1.244-.203.145-.405.26-.579.434-.202.145-.376.29-.55.463-.202.173-.347.347-.52.55-.145.173-.318.375-.434.578-.145.202-.29.405-.405.607-.116.231-.202.434-.318.665-.087.232-.174.434-.231.666a9.37 9.37 0 0 0-.203.723c-.029.116-.029.26-.058.376-.029.115-.029.231-.058.347 0 .231-.028.492-.028.723 0 .174 0 .347.028.52 0 .232.03.463.087.724.03.231.087.462.145.694.087.231.145.463.231.694.058.145.145.29.203.405l-6.653-2.574a71.52 71.52 0 0 0-3.355-.868l-1.822-.434a53.682 53.682 0 0 0-5.264-.78c-.058 0-.087-.03-.145-.03a51.73 51.73 0 0 0-5.177-.26c-1.273 0-2.546.058-3.79.144-1.764.116-3.528.348-5.292.637-.434.058-.868.144-1.302.231-.897.174-1.764.376-2.603.579l-1.302.347c-.433.173-.838.376-1.243.55l-.955.433c-.058.03-.116.03-.145.058-.289.145-.549.26-.81.405a1.396 1.396 0 0 0-.202.087 12.79 12.79 0 0 0-.896.463c-.203.086-.405.202-.579.289a2.612 2.612 0 0 1-.26.144c-.26.145-.52.29-.752.434-.26.145-.492.29-.695.434-.202.145-.404.26-.578.405-.029.029-.058.029-.087.058a6.68 6.68 0 0 0-.55.405l-.057.058c-.145.115-.29.23-.434.347-.058.029-.116.086-.174.115-.144.116-.289.26-.433.376-.03.058-.087.087-.116.116-.174.174-.347.318-.52.492-.03 0-.03.029-.058.058a8.164 8.164 0 0 0-.521.491c-.03.03-.03.058-.058.058-.145.145-.29.29-.434.463-.058.058-.144.116-.202.173-.145.174-.318.348-.492.521-.029.058-.087.087-.116.145-.231.231-.433.462-.665.694l-.087.087c-.463.491-.954.983-1.475 1.417-.52.463-1.07.897-1.62 1.273-.578.404-1.128.752-1.735 1.099-.579.318-1.186.607-1.822.867-.608.26-1.244.492-1.88.695-1.215.26-2.459.752-3.529.838-.231 0-.492.058-.723.087-.26.058-.492.116-.723.174l-.694.26c-.232.087-.463.203-.695.318-.202.145-.433.26-.636.405a4.722 4.722 0 0 0-.578.492c-.203.144-.405.347-.579.52-.173.203-.347.376-.492.579-.144.231-.318.434-.433.665-.145.203-.29.434-.405.665-.116.26-.232.492-.319.752-.086.232-.173.492-.26.752-.058.232-.116.463-.144.695 0 .029-.03.057-.03.086-.057.26-.057.608-.086.781-.03.203-.058.376-.058.579 0 .116 0 .26.029.376.029.202.058.376.116.55.058.173.115.346.202.52v.029c.087.174.203.347.318.52.116.174.232.348.376.521.145.145.319.318.492.463.174.174.347.318.55.463.694.607.867.81 1.764 1.273.145.086.29.144.463.23.029 0 .058.03.087.03 0 .058 0 .087.029.145.029.23.086.462.144.694.058.26.145.491.232.694.086.173.144.347.23.52.03.058.059.116.088.145.115.231.231.434.347.636l.434.608c.144.173.318.376.491.55.174.173.347.318.55.491 0 0 .029.029.058.029.173.145.347.29.52.405.203.145.405.26.637.376.202.116.434.231.665.318.173.087.376.145.578.203.03.029.058.029.116.057.116.03.26.058.376.087-.087 1.562-.116 3.037.116 3.558.26.578 1.533-1.186 2.806-3.21-.174 1.995-.29 4.338 0 5.032.318.723 2.053-1.533 3.557-4.02 20.507-4.744 39.221 9.429 41.188 29.444-.376-3.123-4.223-4.859-5.987-4.425-.868 2.14-2.343 4.888-4.715 6.594a18.546 18.546 0 0 0-.29-5.784c-.636 2.66-1.88 5.148-3.586 7.289-2.748.202-5.495-1.129-6.942-3.124-.115-.087-.144-.26-.231-.376a5.212 5.212 0 0 1-.231-.608 2.398 2.398 0 0 1-.174-.607c-.029-.203-.029-.405-.029-.636v-.434c.03-.203.087-.405.145-.608.058-.202.116-.405.202-.607.116-.203.203-.405.347-.608.492-1.388.492-2.516-.405-3.181a3.292 3.292 0 0 0-.55-.29c-.115-.028-.26-.086-.375-.115-.087-.03-.145-.058-.232-.087-.202-.058-.405-.116-.607-.144a2.204 2.204 0 0 0-.607-.087 4.718 4.718 0 0 0-.637-.058c-.144 0-.289.029-.434.029-.231 0-.433.029-.636.087-.202.029-.405.057-.607.115a4.972 4.972 0 0 0-.608.203c-.202.087-.376.173-.578.26-.174.087-.347.203-.55.29-6.739 4.396-2.719 14.693 1.88 17.672-1.735.318-3.5.694-3.991 1.07l-.058.058a27.249 27.249 0 0 0 3.905 1.938 95.635 95.635 0 0 0 4.685 1.388v.03c2.401.49 4.83.665 7.29.52 12.813-.897 23.312-10.644 25.221-23.486.058.26.116.491.174.752.086.52.202 1.07.26 1.62v.028c.058.26.087.521.116.752v.116c.029.26.057.52.057.752.03.319.058.637.058.955v.463c0 .144.03.318.03.462 0 .174-.03.347-.03.521v.405c0 .202-.029.376-.029.578 0 .116 0 .232-.029.376 0 .203-.029.405-.029.637-.029.086-.029.173-.029.26-.029.231-.058.434-.087.665 0 .087 0 .174-.028.26-.03.29-.087.55-.116.84V82.769c-.058.26-.116.549-.174.81v.086l-.173.781c0 .029-.03.087-.03.116a7.76 7.76 0 0 1-.202.78v.088c-.087.289-.173.549-.231.81-.029.028-.029.057-.029.057l-.26.868c-.116.29-.203.55-.319.839-.115.289-.202.578-.318.838-.115.29-.231.55-.347.84h-.029c-.115.26-.231.549-.376.81-.029.086-.058.144-.087.202-.029.029-.029.057-.057.086-1.88 3.79-4.657 7.116-8.128 9.719-.231.145-.463.318-.694.492-.058.057-.145.086-.202.144-.203.145-.405.289-.637.434l.087.174h.029l1.215-.174h.029c.752-.116 1.504-.26 2.256-.405.202-.029.434-.087.636-.144.145-.029.26-.058.405-.087.203-.029.405-.087.607-.116.174-.058.347-.087.521-.145 2.892-.694 5.698-1.648 8.388-2.776A46.32 46.32 0 0 1 52.41 112.56c3.326-.231 6.653-.781 9.863-1.706 11.657-3.442 21.462-11.28 27.333-21.838a46.166 46.166 0 0 1-7.78 18.598 45.51 45.51 0 0 0 7.723-6.421 45.842 45.842 0 0 0 12.177-24.585 46.036 46.036 0 0 1 .839 13.941c20.883-29.126 1.735-59.324-6.277-67.276-.029-.058-.057-.087-.057-.145-.03.029-.03.029-.03.058 0-.03 0-.03-.028-.058 0 .347-.03.694-.058 1.041a38.942 38.942 0 0 1-.29 1.938c-.144.636-.318 1.273-.491 1.91a24.082 24.082 0 0 1-.694 1.85c-.26.579-.55 1.186-.868 1.765a19.74 19.74 0 0 1-1.041 1.648c-.376.55-.781 1.07-1.186 1.562-.434.52-.897.984-1.36 1.446-.289.26-.55.492-.838.724l-.666.578c-.52.405-1.04.78-1.62 1.128-.549.347-1.127.694-1.706.983-.607.29-1.215.55-1.822.81a20.34 20.34 0 0 1-1.88.608c-.637.173-1.302.318-1.938.434-.665.115-1.33.173-1.967.231a22.22 22.22 0 0 1-1.388.058c-.665 0-1.33-.058-1.967-.116a14.64 14.64 0 0 1-1.967-.29 14.616 14.616 0 0 1-1.938-.49h-.029c.636-.059 1.273-.117 1.91-.232.665-.116 1.3-.26 1.937-.434a20.34 20.34 0 0 0 1.88-.608c.636-.231 1.244-.52 1.822-.81.608-.289 1.157-.607 1.736-.954.55-.376 1.099-.752 1.62-1.157.52-.405 1.012-.839 1.475-1.301.491-.434.925-.926 1.36-1.418a28.61 28.61 0 0 0 1.214-1.562c.058-.086.116-.202.174-.289.289-.463.578-.925.838-1.388a19.954 19.954 0 0 0 1.562-3.616c.203-.607.347-1.243.492-1.88.116-.665.231-1.301.29-1.938.057-.665.115-1.33.115-1.967 0-.462-.03-.925-.058-1.388-.058-.665-.145-1.301-.231-1.938a20.996 20.996 0 0 0-.434-1.938c-.203-.607-.405-1.243-.636-1.85a19.971 19.971 0 0 0-.81-1.794c-.319-.579-.637-1.157-.984-1.707-.376-.55-.752-1.07-1.157-1.59-.434-.492-.867-.984-1.33-1.476a18 18 0 0 0-.752-.723 53.245 53.245 0 0 0-4.02-2.834 5.387 5.387 0 0 0-.58-.29c-.954-.607-1.85-.925-2.747-1.214v-.001Z" fill="#E0234E"/></svg>