<svg width="112" height="113" fill="none" xmlns="http://www.w3.org/2000/svg"><g clip-path="url(#a)"><rect width="112" height="113" rx="10" fill="#AC2C21"/><path fill-rule="evenodd" clip-rule="evenodd" d="M8.039 113.2h56.866s-10.87-49.596 25.122-69.68c7.846-3.814 32.824-18.067 73.71 12.166 1.296-1.08 2.52-1.944 2.52-1.944s-37.431-37.359-79.11-33.184C66.202 22.43 40.432 41.505 25.316 66.7 10.198 91.893 8.039 113.2 8.039 113.2Z" fill="#fff"/><path fill-rule="evenodd" clip-rule="evenodd" d="M8.039 113.2h56.866s-10.87-49.596 25.122-69.68c7.846-3.814 32.824-18.067 73.71 12.166 1.296-1.08 2.52-1.944 2.52-1.944s-37.431-37.359-79.11-33.184C66.202 22.43 40.432 41.505 25.316 66.7 10.198 91.893 8.039 113.2 8.039 113.2Z" fill="#fff"/><path fill-rule="evenodd" clip-rule="evenodd" d="M8.039 113.2h56.866s-10.87-49.596 25.122-69.68c7.846-3.815 32.824-18.067 73.71 12.166 1.296-1.08 2.52-1.944 2.52-1.944s-37.431-37.359-79.11-33.184C66.13 22.43 40.36 41.505 25.244 66.699 10.126 91.893 8.039 113.2 8.039 113.2Zm118.483-88.61.288-4.824c-.648-.36-2.447-1.223-6.982-2.52l-.288 4.752a115.29 115.29 0 0 1 6.982 2.591Z" fill="#fff"/><path fill-rule="evenodd" clip-rule="evenodd" d="m119.684 39.85-.288 4.535c2.376.072 4.751.36 7.126.863l.288-4.463a50.953 50.953 0 0 0-7.126-.935ZM93.05 17.39h.72L92.33 13a57.44 57.44 0 0 0-6.91.432l1.368 4.247c2.087-.216 4.175-.288 6.262-.288Zm3.456 26.49 1.655 4.967c2.088-1.007 4.175-1.871 6.263-2.519l-1.584-4.75a52.25 52.25 0 0 0-6.334 2.303Zm-32.68-18.93-3.24-4.968a114.55 114.55 0 0 0-5.614 3.096l3.31 5.038c1.872-1.151 3.672-2.231 5.543-3.167ZM78.581 57.34l3.455 5.183c1.224-1.8 2.663-3.455 4.247-5.11l-3.24-4.895a39.829 39.829 0 0 0-4.462 4.822ZM68.144 80.52l5.831 4.607a57.489 57.489 0 0 1 1.512-8.422l-5.183-4.103c-.936 2.663-1.584 5.326-2.16 7.918ZM36.616 46.328l-5.11-4.463c-1.872 1.8-3.672 3.6-5.328 5.399l5.543 4.75a72.926 72.926 0 0 1 4.895-5.686ZM14.877 78.504 6.6 75.481C5.231 78.576 3.72 82.175 3 84.119l8.278 3.023c.936-2.447 2.447-5.974 3.6-8.638Zm52.188 20.3c.144 3.815.504 6.91.863 9.069l8.638 3.096c-.648-2.808-1.295-5.975-1.727-9.358l-7.774-2.808Z" fill="#fff"/></g><defs><clipPath id="a"><rect width="112" height="113" rx="10" fill="#fff"/></clipPath></defs></svg>