<svg width="112" height="113" fill="none" xmlns="http://www.w3.org/2000/svg"><g clip-path="url(#a)" fill-rule="evenodd" clip-rule="evenodd"><path d="m22.943 112 83.222-5.648 6.409-83.915-25.358 51.398L22.943 112Z" fill="url(#b)"/><path d="m79.665 82.653 26.636 23.642-7.153-49.369-19.483 25.727Z" fill="url(#c)"/><path d="m23.222 111.892 83.176-5.596-52.404-4.114-30.772 9.71Z" fill="url(#d)"/><path d="m7.58 75.176 15.716 36.727 13.09-42.886-28.806 6.16Z" fill="url(#e)"/><path d="m33.142 67.926 46.517 14.87-12.045-47.183-34.472 32.313Z" fill="url(#f)"/><path d="m68.182 39 41.659-2.722L77.256 9.665 68.182 39Z" fill="url(#g)"/><path d="m63.347.034 31.255.142-19.165 10.59L63.347.035Z" fill="url(#h)"/><path d="M1.534 57.477 0 89.562 8.028 74.92 1.534 57.477Z" fill="url(#i)"/><path d="m1.318 57.67 6.318 17.79 28.41-6.37 32.386-30.113L77.579 9.92 63.25 0 38.7 8.88c-7.716 7.177-22.688 21.376-23.227 21.643-.54.267-9.67 18.716-14.154 27.147Z" fill="#fff"/><path d="M24.045 23.63C40.767 7.05 62.324-2.745 70.597 5.602c8.272 8.346-.5 28.63-17.222 45.204S15.364 77.716 7.097 69.37c-8.268-8.347.227-29.165 16.948-45.739Z" fill="url(#j)"/><path d="m23.296 111.886 12.988-43.023 43.137 13.858c-15.603 14.625-32.944 26.989-56.126 29.165Z" fill="url(#k)"/><path d="m68.5 38.88 11.074 43.864c13.028-13.699 24.721-28.409 30.449-46.642L68.5 38.881Z" fill="url(#l)"/><path d="M109.909 36.324c4.432-13.375 5.455-32.563-15.443-36.125L77.318 9.671l32.591 26.653Z" fill="url(#m)"/><path d="M0 89.37c.614 22.073 16.54 22.403 23.324 22.596L7.654 75.369 0 89.37Z" fill="#A93527"/><path d="M68.562 38.949a15690.051 15690.051 0 0 0 30.597 18.75c.636.358 8.699-13.597 10.528-21.483l-41.125 2.733Z" fill="url(#n)"/><path d="m36.267 68.863 17.364 33.523c10.267-5.568 18.306-12.352 25.67-19.62L36.267 68.864Z" fill="url(#o)"/><path d="m7.568 75.415-2.46 29.295c4.642 6.341 11.028 6.892 17.727 6.398-4.83-12.063-14.511-36.182-15.267-35.693Z" fill="url(#p)"/><path d="m77.216 9.744 34.494 4.841C109.869 6.784 104.216 1.75 94.58.176L77.215 9.744Z" fill="url(#q)"/></g><defs><linearGradient id="b" x1="98.903" y1="122.21" x2="75.153" y2="80.278" gradientUnits="userSpaceOnUse"><stop stop-color="#F29071"/><stop offset=".41" stop-color="#D94736"/><stop offset=".99" stop-color="#A42523"/><stop offset="1" stop-color="#A42523"/></linearGradient><linearGradient id="c" x1="110.733" y1="86.989" x2="80.131" y2="66.449" gradientUnits="userSpaceOnUse"><stop stop-color="#993626"/><stop offset=".99" stop-color="#A03529"/><stop offset="1" stop-color="#A03529"/></linearGradient><linearGradient id="d" x1="86.244" y1="123.483" x2="55.642" y2="102.943" gradientUnits="userSpaceOnUse"><stop stop-color="#993626"/><stop offset=".99" stop-color="#A03529"/><stop offset="1" stop-color="#A03529"/></linearGradient><linearGradient id="e" x1="21.989" y1="72.119" x2="26.733" y2="102.96" gradientUnits="userSpaceOnUse"><stop stop-color="#fff"/><stop offset=".23" stop-color="#E38C6E"/><stop offset=".46" stop-color="#D85839"/><stop offset=".99" stop-color="#A60003"/><stop offset="1" stop-color="#A60003"/></linearGradient><linearGradient id="f" x1="54.619" y1="43.324" x2="56.369" y2="74.795" gradientUnits="userSpaceOnUse"><stop stop-color="#fff"/><stop offset=".23" stop-color="#E18B6A"/><stop offset=".56" stop-color="#C03928"/><stop offset=".99" stop-color="#AF2C21"/><stop offset="1" stop-color="#AF2C21"/></linearGradient><linearGradient id="g" x1="83.579" y1="14.244" x2="88.818" y2="36.795" gradientUnits="userSpaceOnUse"><stop stop-color="#fff"/><stop offset=".18" stop-color="#E07E5E"/><stop offset=".4" stop-color="#C7422A"/><stop offset=".99" stop-color="#AF2C21"/><stop offset="1" stop-color="#AF2C21"/></linearGradient><linearGradient id="h" x1="67.602" y1="6.301" x2="90.153" y2="-4.977" gradientUnits="userSpaceOnUse"><stop stop-color="#fff"/><stop offset=".54" stop-color="#C63D2B"/><stop offset=".99" stop-color="#BE2320"/><stop offset="1" stop-color="#BE2320"/></linearGradient><linearGradient id="i" x1="2.216" y1="64.261" x2="4.074" y2="82.846" gradientUnits="userSpaceOnUse"><stop stop-color="#fff"/><stop offset=".31" stop-color="#D95D3D"/><stop offset=".99" stop-color="#C03926"/><stop offset="1" stop-color="#C03926"/></linearGradient><linearGradient id="j" x1="-10.546" y1="87.869" x2="76.71" y2="-1.853" gradientUnits="userSpaceOnUse"><stop stop-color="#BD0012"/><stop offset=".07" stop-color="#fff"/><stop offset=".17" stop-color="#fff"/><stop offset=".27" stop-color="#C84D35"/><stop offset=".33" stop-color="#952F26"/><stop offset=".46" stop-color="#AC3822"/><stop offset=".72" stop-color="#B7331F"/><stop offset=".99" stop-color="#D9411D"/><stop offset="1" stop-color="#D9411D"/></linearGradient><linearGradient id="k" x1="56.295" y1="96.92" x2="30.011" y2="90.431" gradientUnits="userSpaceOnUse"><stop stop-color="#9C2F25"/><stop offset=".54" stop-color="#A52D23"/><stop offset=".99" stop-color="#B02C2B"/><stop offset="1" stop-color="#B02C2B"/></linearGradient><linearGradient id="l" x1="101.438" y1="65.375" x2="78.085" y2="44.449" gradientUnits="userSpaceOnUse"><stop stop-color="#93352B"/><stop offset=".99" stop-color="#A82D22"/><stop offset="1" stop-color="#A82D22"/></linearGradient><linearGradient id="m" x1="110.011" y1="26.977" x2="98.381" y2="14.546" gradientUnits="userSpaceOnUse"><stop stop-color="#8F372C"/><stop offset=".99" stop-color="#A93529"/><stop offset="1" stop-color="#A93529"/></linearGradient><linearGradient id="p" x1="15.153" y1="111.864" x2="5.676" y2="79.71" gradientUnits="userSpaceOnUse"><stop stop-color="#9C4230"/><stop offset=".43" stop-color="#A93129"/><stop offset=".99" stop-color="#B72F29"/><stop offset="1" stop-color="#B72F29"/></linearGradient><linearGradient id="q" x1="87.864" y1="5.307" x2="109.114" y2="14.687" gradientUnits="userSpaceOnUse"><stop stop-color="#B62F1F"/><stop offset=".44" stop-color="#A03228"/><stop offset=".99" stop-color="#8F3F30"/><stop offset="1" stop-color="#8F3F30"/></linearGradient><radialGradient id="n" cx="0" cy="0" r="1" gradientUnits="userSpaceOnUse" gradientTransform="translate(81.722 44.846) scale(28.6136)"><stop stop-color="#AF2C21"/><stop offset=".99" stop-color="#923229"/><stop offset="1" stop-color="#923229"/></radialGradient><radialGradient id="o" cx="0" cy="0" r="1" gradientUnits="userSpaceOnUse" gradientTransform="translate(42.097 82.55) scale(38.0398)"><stop stop-color="#AC2C21"/><stop offset=".99" stop-color="#95332A"/><stop offset="1" stop-color="#95332A"/></radialGradient><clipPath id="a"><path fill="#fff" d="M0 0h112v113H0z"/></clipPath></defs></svg>