<svg xmlns="http://www.w3.org/2000/svg" width="106" height="64" fill="none"><path fill="#38BDF8" d="M52.898 0C38.792 0 29.976 7.053 26.45 21.16c5.29-7.054 11.462-9.699 18.515-7.935 4.024 1.005 6.9 3.926 10.084 7.157 5.186 5.264 11.189 11.357 24.3 11.357 14.106 0 22.922-7.053 26.449-21.16-5.29 7.054-11.462 9.699-18.515 7.935-4.024-1.005-6.9-3.926-10.084-7.157C72.012 6.093 66.01 0 52.898 0ZM26.45 31.739c-14.106 0-22.922 7.053-26.449 21.16 5.29-7.054 11.461-9.699 18.514-7.935 4.025 1.007 6.9 3.926 10.084 7.157 5.186 5.264 11.19 11.357 24.3 11.357 14.107 0 22.923-7.053 26.45-21.16-5.29 7.054-11.462 9.699-18.515 7.935-4.024-1.005-6.9-3.926-10.084-7.156-5.186-5.265-11.189-11.358-24.3-11.358Z"/></svg>