<svg width="100" height="100" fill="none" xmlns="http://www.w3.org/2000/svg"><path fill="#2D2D2D" d="M0 0h100v100H0z"/><path d="M56.073 46.365c3.3-1.343 5.314-3.445 6.628-5.022 2.51-2.89 3.533-6.423 3.533-9.781 0-2.715-.76-8.117-5.49-11.825-3.27-2.51-6.16-3.737-13.05-3.737H29.445v68h41.11V70.949c0-12.496-4.03-20.905-14.482-24.584Zm5.168 33.869h-7.416V57.548H45.27v22.715h-6.54V19.387h6.745c2.51 0 6.335.555 9.05 3.912 1.402 1.694 2.278 3.971 2.57 6.22H45.299v3.357h11.913c-.088 2.16-.526 4.584-2.657 7.153-1.869 2.336-4.934 4.497-9.256 4.497h-.087v3.386c11.562 0 16.058 7.68 16.058 21.752l-.029 10.57Z" fill="#EEE"/></svg>