<svg width="100" height="100" fill="none" xmlns="http://www.w3.org/2000/svg"><path fill="#EEE" d="M0 0h100v100H0z"/><path d="M47.445 11.021c-.169.015-.701.068-1.181.107-11.079 1-21.457 6.976-28.029 16.163-3.66 5.107-6 10.901-6.885 17.038-.313 2.143-.351 2.776-.351 5.679 0 2.903.037 3.538.35 5.679 2.121 14.646 12.543 26.95 26.68 31.509 2.53.815 5.2 1.371 8.235 1.707 1.181.13 6.29.13 7.473 0 5.238-.579 9.676-1.876 14.051-4.11.67-.344.8-.434.71-.51-.061-.047-2.92-3.88-6.351-8.517l-6.237-8.423-7.815-11.566c-4.3-6.358-7.838-11.557-7.87-11.557-.03-.007-.06 5.131-.076 11.406-.022 10.985-.03 11.427-.168 11.686-.198.374-.35.526-.67.694-.244.123-.459.145-1.609.145h-1.319l-.35-.221a1.425 1.425 0 0 1-.51-.557l-.16-.344.014-15.285.023-15.293.236-.297c.123-.16.381-.366.565-.465.313-.153.434-.169 1.753-.169 1.555 0 1.814.062 2.22.504.113.123 4.346 6.496 9.408 14.173 5.063 7.677 11.986 18.16 15.387 23.306l6.175 9.355.313-.206c2.768-1.799 5.697-4.36 8.014-7.028 4.934-5.664 8.113-12.572 9.18-19.937.313-2.143.35-2.776.35-5.679 0-2.903-.037-3.538-.35-5.679-2.12-14.646-12.542-26.95-26.68-31.509-2.492-.808-5.146-1.365-8.12-1.7-.732-.077-5.773-.16-6.406-.099Zm15.966 23.587c.366.184.664.535.771.9.061.198.077 4.437.061 13.99l-.022 13.708-2.416-3.705-2.425-3.705v-9.964c0-6.442.03-10.063.076-10.238.123-.428.39-.763.756-.96.313-.16.427-.175 1.623-.175 1.129 0 1.328.015 1.578.153l-.002-.004Z" fill="#040404"/></svg>