<svg width="100" height="100" fill="none" xmlns="http://www.w3.org/2000/svg"><path fill="#2D2D2D" d="M0 0h100v100H0z"/><path d="M50 57.144a7.144 7.144 0 1 0 0-14.288 7.144 7.144 0 0 0 0 14.288Z" fill="#EEE"/><path d="M50 64.636c21.17 0 38.331-6.553 38.331-14.636 0-8.083-17.161-14.635-38.331-14.635S11.669 41.917 11.669 50s17.161 14.636 38.33 14.636Z" stroke="#EEE" stroke-width="3.485"/><path d="M37.325 57.318c10.585 18.334 24.84 29.92 31.84 25.878 7-4.041 4.095-22.18-6.49-40.514-10.585-18.333-24.84-29.92-31.84-25.878-7 4.042-4.095 22.18 6.49 40.514Z" stroke="#EEE" stroke-width="3.485"/><path d="M37.325 42.682c-10.585 18.334-13.49 36.473-6.49 40.514 7 4.042 21.255-7.544 31.84-25.878s13.49-36.472 6.49-40.514c-7-4.041-21.255 7.545-31.84 25.878Z" stroke="#EEE" stroke-width="3.485"/></svg>