<svg width="100" height="100" fill="none" xmlns="http://www.w3.org/2000/svg"><path fill="#EEE" d="M0 0h100v100H0z"/><path d="M88.448 34.895s-4.806 7.21-13.045 5.836C67.164 39.358 65.79 27 51.03 27c-18.194 0-20.254 15.448-20.254 15.448s5.15-7.553 13.045-6.18C51.716 37.643 54.806 50 70.94 50c16.133 0 17.507-15.105 17.507-15.105Z" fill="url(#a)"/><path d="M69.225 57.895s-4.806 7.209-13.045 5.836c-8.24-1.373-9.612-13.732-24.373-13.732-18.195 0-20.254 15.448-20.254 15.448s5.149-7.552 13.044-6.179C32.15 60.641 35.584 73 51.718 73s17.508-15.105 17.508-15.105Z" fill="url(#b)"/><defs><linearGradient id="a" x1="30.614" y1="38.5" x2="88.417" y2="38.5" gradientUnits="userSpaceOnUse"><stop stop-color="#45A9B3"/><stop offset=".389" stop-color="#3FAEB0"/><stop offset="1" stop-color="#2CBBAB"/></linearGradient><linearGradient id="b" x1="11.285" y1="61.499" x2="69.084" y2="61.499" gradientUnits="userSpaceOnUse"><stop stop-color="#45A9B3"/><stop offset=".389" stop-color="#3FAEB0"/><stop offset="1" stop-color="#2CBBAB"/></linearGradient></defs></svg>