<svg width="50" height="50" fill="none" xmlns="http://www.w3.org/2000/svg"><path d="M19.871 39.722C9.963 42.694 9.963 34.768 6 33.777m27.742 11.89v-7.669a6.676 6.676 0 0 0-1.862-5.172c6.222-.694 12.761-3.052 12.761-13.871a10.78 10.78 0 0 0-2.972-7.431c.903-2.42.84-5.096-.178-7.47 0 0-2.339-.694-7.748 2.932a26.514 26.514 0 0 0-13.872 0c-5.41-3.626-7.748-2.933-7.748-2.933a10.047 10.047 0 0 0-.178 7.47 10.78 10.78 0 0 0-2.973 7.491c0 10.74 6.54 13.099 12.762 13.872a6.677 6.677 0 0 0-1.863 5.112v7.669" stroke="#fff" stroke-width="3.963" stroke-linecap="round" stroke-linejoin="round"/></svg>