<svg width="50" height="50" fill="none" xmlns="http://www.w3.org/2000/svg"><path d="M44.43 4.953a5.187 5.187 0 0 0-5.258-.434L2.476 23.849c-2.753 1.45-2.59 5.415.244 6.693.606.273 1.135.478 1.548.591l4.5 1.125c1.55.39 3.212.103 4.546-.787l19.07-14.644a1.047 1.047 0 0 1 1.412.124c.369.399.369 1.014.002 1.416L20.066 33.41c-.612.617-.895 1.419-.805 2.235a2.68 2.68 0 0 0 1.232 1.976l.073.038 16.67 7.938c2.555 1.217 5.545-.453 5.851-3.265l3.548-32.589a5.169 5.169 0 0 0-2.205-4.79Z" fill="#EEE"/></svg>